<?xml version="1.0" encoding="UTF-8" standalone="no"?>
<!-- Created with Inkscape (http://www.inkscape.org/) -->

<svg
   xmlns:dc="http://purl.org/dc/elements/1.1/"
   xmlns:cc="http://creativecommons.org/ns#"
   xmlns:rdf="http://www.w3.org/1999/02/22-rdf-syntax-ns#"
   xmlns:svg="http://www.w3.org/2000/svg"
   xmlns="http://www.w3.org/2000/svg"
   xmlns:sodipodi="http://sodipodi.sourceforge.net/DTD/sodipodi-0.dtd"
   xmlns:inkscape="http://www.inkscape.org/namespaces/inkscape"
   width="338.66666mm"
   height="338.66663mm"
   viewBox="0 0 1200 1199.9999"
   id="svg4183"
   version="1.1"
   inkscape:version="0.91 r13725"
   sodipodi:docname="GtkPass_Icon.svg">
  <defs
     id="defs4185">
    <filter
       style="color-interpolation-filters:sRGB;"
       inkscape:label="Drop Shadow"
       id="filter5216">
      <feFlood
         flood-opacity="0.498039"
         flood-color="rgb(0,0,0)"
         result="flood"
         id="feFlood5218" />
      <feComposite
         in="flood"
         in2="SourceGraphic"
         operator="in"
         result="composite1"
         id="feComposite5220" />
      <feGaussianBlur
         in="composite1"
         stdDeviation="0.5"
         result="blur"
         id="feGaussianBlur5222" />
      <feOffset
         dx="10"
         dy="10"
         result="offset"
         id="feOffset5224" />
      <feComposite
         in="SourceGraphic"
         in2="offset"
         operator="over"
         result="composite2"
         id="feComposite5226" />
    </filter>
  </defs>
  <sodipodi:namedview
     id="base"
     pagecolor="#ffffff"
     bordercolor="#666666"
     borderopacity="1.0"
     inkscape:pageopacity="0.0"
     inkscape:pageshadow="2"
     inkscape:zoom="0.35"
     inkscape:cx="643.84588"
     inkscape:cy="655.96129"
     inkscape:document-units="px"
     inkscape:current-layer="layer1"
     showgrid="false"
     fit-margin-top="0"
     fit-margin-left="0"
     fit-margin-right="0"
     fit-margin-bottom="0"
     inkscape:window-width="1366"
     inkscape:window-height="711"
     inkscape:window-x="0"
     inkscape:window-y="27"
     inkscape:window-maximized="1" />
  <metadata
     id="metadata4188">
    <rdf:RDF>
      <cc:Work
         rdf:about="">
        <dc:format>image/svg+xml</dc:format>
        <dc:type
           rdf:resource="http://purl.org/dc/dcmitype/StillImage" />
        <dc:title></dc:title>
      </cc:Work>
    </rdf:RDF>
  </metadata>
  <g
     inkscape:label="Ebene 1"
     inkscape:groupmode="layer"
     id="layer1"
     transform="translate(184.85711,91.352136)">
    <circle
       style="opacity:1;fill:#4581ff;fill-opacity:1;stroke:#4581ff;stroke-width:5.25505257;stroke-miterlimit:4;stroke-dasharray:none;stroke-opacity:1"
       id="path4236"
       cx="415.14288"
       cy="508.6478"
       r="597.3725" />
    <rect
       y="9.5050621"
       x="-881.44672"
       width="1000"
       height="1000"
       id="rect4"
       style="fill:none" />
    <g
       transform="matrix(3.8535,0,0,3.8535,-169.01863,-435.67959)"
       id="g6">
      <path
         inkscape:connector-curvature="0"
         d="m 42.062,243.38 c 0,-26.513 21.501,-48.013 48.013,-48.013 19.618,0 36.479,11.78 43.929,28.645 l 122.11,0 3.3222,4.5062 1.6865,3.3731 -11.224,25.008 -7.6162,-5.6657 -6.8478,7.6948 -12.204,-0.44799 -13.56,-2.5825 -9.831,5.244 -9.9666,-5.7447 -8.9496,4.5589 -13.424,2.398 -7.797,-2.398 -9.3338,2.7933 -16.365,0 c -7.4494,16.857 -24.311,28.618 -43.929,28.618 -26.513,0 -48.013,-21.474 -48.013,-47.987 z m 8.0901,0 c 0,11.358 4.1311,21.151 10.119,25.772 l 0,-51.571 c -5.988,4.6209 -10.119,14.441 -10.119,25.799 z"
         id="path8"
         style="color:#000000;fill:#4d4d4d" />
      <path
         inkscape:connector-curvature="0"
         d="m 43.749,246.76 c 0,-26.513 21.501,-48.013 48.013,-48.013 19.618,0 36.479,11.78 43.929,28.645 l 122.11,0 3.3222,4.5062 -2.4634,23.532 -7.0738,4.8488 -7.6162,-5.6657 -6.8478,7.6948 -12.204,-0.44798 -13.56,-2.5825 -9.831,5.244 -9.9666,-5.7447 -8.9496,4.5589 -13.424,2.398 -7.797,-2.398 -9.3338,2.7933 -16.365,0 c -7.4494,16.857 -24.311,28.618 -43.929,28.618 -26.513,0 -48.013,-21.474 -48.013,-47.987 z m 8.0901,0 c 0,11.358 4.1311,21.151 10.119,25.772 l 0,-51.571 c -5.988,4.621 -10.119,14.441 -10.119,25.799 z"
         id="path10"
         style="color:#000000;fill:#e6e6e6;filter:url(#filter5216)" />
      <rect
         transform="matrix(0,1,1,0,0,0)"
         x="244.95"
         y="136.12"
         width="2.9776001"
         height="121.19"
         id="rect12"
         style="color:#000000;fill:#4d4d4d;fill-opacity:0.09128603" />
      <rect
         transform="matrix(0,1,1,0,0,0)"
         x="231.96001"
         y="136.12"
         width="5.3597002"
         height="121.19"
         id="rect14"
         style="color:#000000;fill:#4d4d4d;fill-opacity:0.09128603" />
    </g>
  </g>
</svg>
